<?xml version="1.0" standalone="no"?><!DOCTYPE svg PUBLIC "-//W3C//DTD SVG 1.1//EN" "http://www.w3.org/Graphics/SVG/1.1/DTD/svg11.dtd"><svg t="1779282333724" class="icon" viewBox="0 0 1024 1024" version="1.1" xmlns="http://www.w3.org/2000/svg" p-id="4893" xmlns:xlink="http://www.w3.org/1999/xlink" width="200" height="200"><path d="M797.077333 111.722667L702.72 0l-65.856 110.784-179.946667-31.210667 47.082667 163.925334-165.376 127.402666 242.858667 34.688-11.2 144.64-1.322667 21.653334c0 5.76 4.565333 9.664 9.749333 9.685333a13.717333 13.717333 0 0 0 5.632-1.28l1.514667-0.704 3.605333-1.92 4.416-2.709333 8.704-5.781334 7.125334-4.992 12.714666-9.216 23.893334-17.898666 16.832-12.864 39.616-30.784 39.082666-30.805334 10.368-8.256 128.746667 128.384 14.741333-165.162666L1024 395.946667l-125.568-149.888 81.770667-134.357334h-183.125334z" fill="#FFAD51" p-id="4894"></path><path d="M646.101333 130.901333l59.178667-99.626666 83.370667 98.688h159.104l-71.68 117.824 113.493333 135.466666-110.762667 18.688-12.544 140.437334-112.704-112.362667-66.517333 52.544-31.146667 24.213333-30.869333 23.530667-13.354667 9.941333-12.373333 8.96-9.941333 6.912-1.344 0.853334 10.218666-132.48 2.752-34.538667-217.045333-31.018667 140.970667-108.544-42.496-147.882666z" fill="#FFD217" p-id="4895"></path><path d="M904.917333 129.962667l-71.68 117.824 113.493334 135.466666-110.762667 18.688-9.066667 101.226667-73.344-73.152-23.893333 18.88-18.944-18.88-66.517333 52.544-31.168 24.213333-22.485334 17.152 7.68-99.413333 2.752-34.56-217.045333-31.018667 140.970667-108.544-40.277334-140.074666 118.634667 20.586666 4.010667-6.741333 38.826666 6.741333 41.472-69.824 58.24 68.906667z" fill="#FFE20D" p-id="4896"></path><path d="M381.930667 254.677333c210.944 0 381.952 172.224 381.952 384.661334C763.882667 851.776 592.853333 1024 381.930667 1024 171.008 1024 0 851.776 0 639.36c0-212.458667 171.008-384.682667 381.930667-384.682667z" fill="#3D2D2D" p-id="4897"></path><path d="M381.930667 272.917333c-200.853333 0-363.733333 164.053333-363.733334 366.421334 0 202.389333 162.88 366.421333 363.733334 366.421333 200.874667 0 363.733333-164.032 363.733333-366.421333 0-202.389333-162.858667-366.421333-363.733333-366.421334z" fill="#131313" p-id="4898"></path><path d="M381.930667 272.917333c190.101333 0 346.176 146.922667 362.368 334.229334-16.192 187.328-172.266667 334.250667-362.368 334.250666-190.08 0-346.154667-146.922667-362.346667-334.229333 16.192-187.328 172.266667-334.250667 362.346667-334.250667z" fill="#292929" p-id="4899"></path><path d="M552.384 249.450667l-3.242667 1.130666-1.962666 0.853334-1.877334 0.981333-1.92 1.237333-2.005333 1.557334-2.197333 1.984-2.496 2.474666-4.437334 4.842667-5.546666 6.421333-22.570667 27.136-6.314667 7.402667c-2.986667 3.392-5.674667 6.336-8.341333 9.088a146.453333 146.453333 0 0 1-5.781333 5.674667l-3.498667 3.136a48.704 48.704 0 0 1-12.309333 7.829333l-5.248 2.346667-10.837334 4.48c-13.845333 5.589333-20.8 11.306667-24.170666 23.424-8.554667 30.869333 25.728 84.096 80.917333 119.978666 64.149333 41.728 112.042667 54.4 137.28 29.781334 4.693333-4.608 7.104-10.005333 9.536-19.626667l4.309333-18.304 1.344-5.12 1.258667-4.181333 0.64-1.856 1.344-3.456 1.578667-3.477334 1.92-3.84c1.194667-2.325333 2.496-4.736 3.925333-7.253333l4.650667-7.978667 7.808-12.629333 10.602666-16.853333 6.144-10.069334 3.328-5.674666 3.882667-7.168 1.92-4.053334 1.472-3.562666c1.813333-5.056 2.133333-8.810667 1.557333-12.8l-0.533333-2.688a48.661333 48.661333 0 0 0-0.362667-1.408c-8.832-33.066667-28.373333-62.613333-56.362666-81.258667-33.472-22.272-79.146667-36.48-103.402667-28.501333z" fill="#CF411C" p-id="4900"></path><path d="M645.696 293.141333c24.085333 16.021333 41.130667 41.792 48.853333 70.784 0.256 0.853333 0.298667 1.877333 0.128 3.093334l-0.448 1.984-0.832 2.410666-0.576 1.386667-1.450666 3.136-1.941334 3.712-3.861333 6.826667-7.146667 11.818666-13.994666 22.357334-3.712 6.058666a283.306667 283.306667 0 0 0-9.152 16.298667c-3.626667 7.061333-6.378667 14.293333-8.618667 22.293333l-1.685333 6.357334-2.752 12.053333c-1.984 8.661333-3.477333 12.565333-5.397334 14.421333-16.490667 16.085333-57.301333 5.312-114.645333-32-49.28-32.042667-79.210667-78.485333-73.28-99.797333 1.322667-4.8 3.712-7.168 10.624-10.24l10.581333-4.266667a126.933333 126.933333 0 0 0 9.130667-4.096 86.826667 86.826667 0 0 0 20.501333-14.08c2.133333-1.962667 4.266667-4.096 6.506667-6.4l2.88-3.008 5.994667-6.634666 6.613333-7.765334 20.544-24.682666 6.272-7.253334 3.221333-3.541333 2.645334-2.666667c1.6-1.536 2.88-2.581333 4.053333-3.349333l1.685333-0.938667 1.642667-0.64c17.6-5.802667 58.368 6.890667 87.616 26.368z" fill="#FC5965" p-id="4901"></path><path d="M655.808 283.541333c43.541333 34.261333 66.304 78.186667 50.837333 98.133334-15.445333 19.904-63.274667 8.32-106.816-25.962667-43.52-34.24-66.282667-78.165333-50.837333-98.090667 15.466667-19.946667 63.296-8.32 106.816 25.92z" fill="#CF411C" p-id="4902"></path><path d="M644.565333 297.898667c-36.501333-28.736-74.346667-37.930667-81.194666-29.098667-6.933333 8.938667 11.136 43.818667 47.701333 72.576 36.522667 28.736 74.346667 37.930667 81.194667 29.098667 6.698667-8.618667-9.877333-41.365333-43.861334-69.482667l-3.84-3.093333z" fill="#FC5965" p-id="4903"></path><path d="M734.72 242.026667a16.32 16.32 0 1 1 0 32.64c-26.688 0-47.829333 9.962667-65.770667 27.434666-4.266667 4.16-8.213333 8.597333-12.117333 13.525334l-4.629333 6.058666-3.882667 5.290667a16.32 16.32 0 1 1-26.24-19.413333l4.842667-6.570667 4.330666-5.632c4.693333-5.973333 9.557333-11.434667 14.933334-16.64 23.637333-23.04 52.629333-36.693333 88.533333-36.693333z" fill="#979797" p-id="4904"></path></svg>