<?xml version="1.0" standalone="no"?><!DOCTYPE svg PUBLIC "-//W3C//DTD SVG 1.1//EN" "http://www.w3.org/Graphics/SVG/1.1/DTD/svg11.dtd"><svg t="1779283567466" class="icon" viewBox="0 0 1024 1024" version="1.1" xmlns="http://www.w3.org/2000/svg" p-id="5975" xmlns:xlink="http://www.w3.org/1999/xlink" width="200" height="200"><path d="M128 64h64v960H128V64z m432 478.72C506.368 586.24 452.608 608 398.72 608 344.832 608 286.592 586.24 224 542.72V64c53.632 43.52 107.392 65.28 161.28 65.28C439.168 129.28 497.408 107.52 560 64v1.28C622.592 21.76 680.832 0 734.72 0 788.608 0 842.368 21.76 896 65.28V544c-62.592-43.52-120.832-65.28-174.72-65.28-53.888 0-107.648 21.76-161.28 65.28v-1.28z" fill="#E02020" p-id="5976"></path></svg>